<svg id="Layer_1" viewBox="0 0 128 128" xmlns="http://www.w3.org/2000/svg" xmlns:xlink="http://www.w3.org/1999/xlink" data-name="Layer 1"><clipPath id="clip-path"><circle cx="64" cy="-99" r="64"/></clipPath><radialGradient id="radial-gradient" cx="27.5" cy="-41.5" gradientUnits="userSpaceOnUse" r="137.5"><stop offset="0" stop-color="#ffd676"/><stop offset=".25" stop-color="#f2a454"/><stop offset=".38" stop-color="#f05c3c"/><stop offset=".7" stop-color="#c22f86"/><stop offset=".96" stop-color="#6666ad"/><stop offset=".99" stop-color="#5c6cb2"/></radialGradient><clipPath id="clip-path-2"><path d="m64 128a64 64 0 1 1 64-64 64.07 64.07 0 0 1 -64 64zm0-120a56 56 0 1 0 56 56 56.06 56.06 0 0 0 -56-56z"/></clipPath><radialGradient id="radial-gradient-2" cx="27.5" cy="121.5" r="148.5" xlink:href="#radial-gradient"/><clipPath id="clip-path-3"><path d="m64 48a16 16 0 1 0 16 16 16 16 0 0 0 -16-16zm0 24a8 8 0 1 1 8-8 8 8 0 0 1 -8 8z"/></clipPath><clipPath id="clip-path-4"><path d="m84 100h-40a16 16 0 0 1 -16-16v-40a16 16 0 0 1 16-16h40a16 16 0 0 1 16 16v40a16 16 0 0 1 -16 16zm-40-64a8 8 0 0 0 -8 8v40a8 8 0 0 0 8 8h40a8 8 0 0 0 8-8v-40a8 8 0 0 0 -8-8z"/></clipPath><clipPath id="clip-path-5"><circle cx="82" cy="46" r="5"/></clipPath><radialGradient id="radial-gradient-5" cx="13.87" cy="140.38" r="185.63" xlink:href="#radial-gradient"/><clipPath id="clip-path-6"><circle cx="82" cy="-280" r="5"/></clipPath><radialGradient id="radial-gradient-6" cx="13.87" cy="-185.62" r="185.63" xlink:href="#radial-gradient"/><g clip-path="url(#clip-path)"><circle cx="27.5" cy="-41.5" fill="url(#radial-gradient)" r="137.5"/></g><g clip-path="url(#clip-path-2)"><circle cx="27.5" cy="121.5" fill="url(#radial-gradient-2)" r="148.5"/></g><g clip-path="url(#clip-path-3)"><circle cx="27.5" cy="121.5" fill="url(#radial-gradient-2)" r="148.5"/></g><g clip-path="url(#clip-path-4)"><circle cx="27.5" cy="121.5" fill="url(#radial-gradient-2)" r="148.5"/></g><g clip-path="url(#clip-path-5)"><circle cx="13.87" cy="140.38" fill="url(#radial-gradient-5)" r="185.63"/></g><g clip-path="url(#clip-path-6)"><circle cx="13.87" cy="-185.62" fill="url(#radial-gradient-6)" r="185.63"/></g></svg>