<svg id="Capa_1" enable-background="new 0 0 523.182 523.182" fill="#fff" viewBox="0 0 523.182 523.182" xmlns="http://www.w3.org/2000/svg"><g><g><path d="m261.591 523.182c-143.827 0-261.591-117.764-261.591-261.591s117.764-261.591 261.591-261.591 261.591 117.764 261.591 261.591-116.799 261.591-261.591 261.591zm0-499.05c-131.278 0-237.459 106.181-237.459 237.459s106.181 237.459 237.459 237.459 237.459-106.181 237.459-237.459-106.181-237.459-237.459-237.459z"/><path d="m234.563 378.39c-3.861 0-6.757-.965-9.653-1.931-8.688-3.861-13.514-13.514-13.514-26.063v-159.27c0-12.549 4.826-22.201 13.514-26.063 8.688-3.861 19.306-1.931 28.958 4.826l96.528 73.361c8.688 6.757 14.479 16.41 14.479 27.028s-4.826 20.271-14.479 27.028l-96.528 73.361c-6.756 5.792-12.548 7.723-19.305 7.723zm.965-190.16v3.861 159.271 3.861c.965 0 1.931-.965 2.896-1.931l96.528-73.361c2.896-1.931 4.826-4.826 4.826-7.722s-1.931-5.792-4.826-7.722l-96.528-73.361c-.965-1.931-1.93-2.896-2.896-2.896z"/></g><g/><g/><g/><g/><g/><g/><g/><g/><g/><g/><g/><g/><g/><g/><g/></g><g/><g/><g/><g/><g/><g/><g/><g/><g/><g/><g/><g/><g/><g/><g/></svg>