<?xml version="1.0" encoding="iso-8859-1"?>
<!-- Generator: Adobe Illustrator 19.0.0, SVG Export Plug-In . SVG Version: 6.00 Build 0)  -->
<svg version="1.1" id="Layer_1" xmlns="http://www.w3.org/2000/svg" xmlns:xlink="http://www.w3.org/1999/xlink" x="0px" y="0px"
	 viewBox="0 0 511.999 511.999" style="enable-background:new 0 0 511.999 511.999;" xml:space="preserve">
<path style="fill:#FFDC64;" d="M264.588,17.801l66.425,159.706l172.416,13.822c8.246,0.662,11.59,10.953,5.307,16.334
	L377.374,320.19l40.134,168.249c1.919,8.047-6.835,14.408-13.895,10.095l-147.612-90.161l-147.613,90.162
	c-7.06,4.312-15.815-2.048-13.895-10.095l40.133-168.249L3.264,207.663c-6.283-5.382-2.939-15.673,5.307-16.334l172.416-13.822
	l66.425-159.706C250.59,10.163,261.41,10.163,264.588,17.801z"/>
<g>
	<path style="fill:#FFC850;" d="M173.199,328.106c2.76-10.442-0.755-21.538-9.022-28.488l-87.41-73.476
		c-4.726-4.713-2.21-13.727,3.992-14.306l111.903-10.445c10.846-1.013,20.11-8.243,23.726-18.518l53.561-152.181l-5.362-12.892
		c-3.177-7.638-13.999-7.638-17.175,0l-66.425,159.705L8.571,191.329c-8.246,0.662-11.591,10.953-5.307,16.334L134.627,320.19
		L94.494,488.438c-1.919,8.047,6.835,14.408,13.895,10.095l23.571-14.397L173.199,328.106z"/>
	<path style="fill:#FFC850;" d="M416.023,495.946l-79.625-73.283c-21.734-20.003-53.101-25.579-80.398-14.29l0,0l147.612,90.162
		C408.163,501.314,413.378,499.631,416.023,495.946z"/>
</g>
<g>
</g>
<g>
</g>
<g>
</g>
<g>
</g>
<g>
</g>
<g>
</g>
<g>
</g>
<g>
</g>
<g>
</g>
<g>
</g>
<g>
</g>
<g>
</g>
<g>
</g>
<g>
</g>
<g>
</g>
</svg>
